<svg width="32" height="32" viewBox="0 0 32 32" fill="none" xmlns="http://www.w3.org/2000/svg">
<path d="M29.3333 4.62745V27.3725C29.3333 27.8926 29.1267 28.3913 28.759 28.759C28.3913 29.1268 27.8925 29.3333 27.3725 29.3333H4.62741C4.10738 29.3333 3.60864 29.1268 3.24093 28.759C2.87321 28.3913 2.66663 27.8926 2.66663 27.3725V4.62745C2.66663 4.10742 2.87321 3.60869 3.24093 3.24097C3.60864 2.87325 4.10738 2.66667 4.62741 2.66667L27.3725 2.66667C27.8925 2.66667 28.3913 2.87325 28.759 3.24097C29.1267 3.60869 29.3333 4.10742 29.3333 4.62745V4.62745ZM10.5098 12.8627H6.58819V25.4118H10.5098V12.8627ZM10.8627 8.54902C10.8648 8.25239 10.8084 7.95825 10.6968 7.6834C10.5852 7.40856 10.4205 7.15839 10.2122 6.94718C10.0039 6.73597 9.75606 6.56786 9.4828 6.45244C9.20953 6.33702 8.9162 6.27656 8.61957 6.27451H8.54898C7.94574 6.27451 7.36721 6.51415 6.94066 6.9407C6.5141 7.36725 6.27447 7.94578 6.27447 8.54902C6.27447 9.15226 6.5141 9.73079 6.94066 10.1573C7.36721 10.5839 7.94574 10.8235 8.54898 10.8235V10.8235C8.84563 10.8308 9.14082 10.7796 9.41767 10.6728C9.69452 10.566 9.94761 10.4056 10.1625 10.201C10.3773 9.99629 10.5498 9.75129 10.6699 9.47995C10.7901 9.20862 10.8556 8.91627 10.8627 8.61961V8.54902ZM25.4117 17.7882C25.4117 14.0157 23.0117 12.549 20.6274 12.549C19.8467 12.5099 19.0695 12.6762 18.3731 13.0313C17.6767 13.3863 17.0857 13.9178 16.6588 14.5725H16.549V12.8627H12.8627V25.4118H16.7843V18.7373C16.7276 18.0537 16.9429 17.3753 17.3835 16.8496C17.824 16.3239 18.4543 15.9932 19.1372 15.9294H19.2862C20.5333 15.9294 21.4588 16.7137 21.4588 18.6902V25.4118H25.3803L25.4117 17.7882Z" stroke="#7879F1" stroke-linejoin="round"/>
</svg>
