<svg width="146" height="42" viewBox="0 0 146 42" fill="none" xmlns="http://www.w3.org/2000/svg">
<path d="M7.85125 27.696C6.37925 27.696 4.99258 27.3227 3.69125 26.576C2.28325 25.7013 1.34458 24.6133 0.87525 23.312C0.704583 22.8427 0.576583 22.416 0.49125 22.032C0.405917 21.6267 0.36325 21.2853 0.36325 21.008C0.36325 20.3253 0.608583 19.984 1.09925 19.984C1.24858 19.984 1.33392 20.0587 1.35525 20.208C1.46192 20.6133 1.55792 20.9547 1.64325 21.232C1.72858 21.5093 1.80325 21.7333 1.86725 21.904C1.97392 22.2027 2.11258 22.48 2.28325 22.736C2.45392 22.992 2.63525 23.2373 2.82725 23.472C3.82992 24.6027 5.17392 25.168 6.85925 25.168C7.15792 25.168 7.50992 25.104 7.91525 24.976C8.36325 24.848 8.61925 24.784 8.68325 24.784C8.74725 24.8053 8.77925 24.8373 8.77925 24.88C8.77925 25.264 7.96858 25.456 6.34725 25.456C4.04325 25.456 2.52858 24.6667 1.80325 23.088C3.08325 25.9467 5.08858 27.376 7.81925 27.376C7.88325 27.376 7.95792 27.376 8.04325 27.376C8.12858 27.376 8.21392 27.3653 8.29925 27.344C8.34192 27.3227 8.41658 27.2907 8.52325 27.248C8.65125 27.2053 8.80058 27.1627 8.97125 27.12C9.95258 26.8213 11.1153 25.6373 12.4593 23.568C12.9499 22.8213 13.3979 22.064 13.8033 21.296C14.2299 20.528 14.6033 19.7493 14.9233 18.96C15.4566 17.7653 15.8726 16.592 16.1713 15.44C15.9579 14.48 15.4246 14 14.5713 14C14.4219 14 14.3259 14.0107 14.2833 14.032C14.2833 13.712 14.4113 13.4133 14.6673 13.136C14.9233 12.8373 15.2219 12.688 15.5633 12.688C16.1393 12.688 16.4486 13.1147 16.4913 13.968C16.6833 13.0933 16.8219 12.2293 16.9073 11.376C16.9926 10.5227 17.0353 9.70133 17.0353 8.912C17.0353 8.74133 17.0353 8.56 17.0353 8.368C17.0353 8.176 17.0246 7.99467 17.0033 7.824C16.2566 7.65333 15.2966 7.44 14.1233 7.184C12.9499 6.928 11.5953 6.62933 10.0593 6.288C9.05658 6.096 8.13925 5.94667 7.30725 5.84C6.49658 5.73333 5.76058 5.68 5.09925 5.68C3.45658 5.68 2.21925 6.01067 1.38725 6.672C0.725917 7.20533 0.39525 7.80267 0.39525 8.464C0.39525 9.616 1.20592 10.192 2.82725 10.192C2.89125 10.192 2.92325 10.2027 2.92325 10.224C2.92325 10.3093 2.65658 10.3627 2.12325 10.384C2.08058 10.384 2.03792 10.4053 1.99525 10.448C1.95258 10.4693 1.89925 10.48 1.83525 10.48C1.68592 10.48 1.52592 10.4373 1.35525 10.352C0.544583 10.0747 0.13925 9.50933 0.13925 8.656C0.13925 8.42133 0.17125 8.176 0.23525 7.92C0.320583 7.664 0.448583 7.41867 0.61925 7.184C1.83525 5.37067 3.76592 4.464 6.41125 4.464C6.94458 4.464 7.50992 4.496 8.10725 4.56C8.72592 4.60267 9.38725 4.70933 10.0913 4.88L16.8753 6.48C16.6833 5.09333 16.2033 3.93067 15.4353 2.992C15.2859 2.84267 15.2113 2.704 15.2113 2.576C15.2113 2.40533 15.3073 2.32 15.4993 2.32C15.6059 2.32 15.7659 2.40533 15.9792 2.576C16.7899 3.408 17.3233 4.76267 17.5793 6.64C18.7526 6.896 19.7873 7.088 20.6833 7.216L21.0993 6.512C21.2699 6.23467 21.4833 5.98933 21.7393 5.776C21.9953 5.54133 22.2833 5.31733 22.6033 5.104C23.3073 4.69866 23.9473 4.496 24.5233 4.496C24.8219 4.496 25.1633 4.592 25.5473 4.784C25.9526 4.976 26.1553 5.22133 26.1553 5.52C26.1553 5.75467 26.0593 5.872 25.8673 5.872C25.8246 5.872 25.6433 5.712 25.3233 5.392C25.0459 5.05067 24.7259 4.88 24.3633 4.88C23.6166 4.88 22.9553 5.49867 22.3793 6.736L22.0913 7.344C22.3686 7.36533 22.6353 7.376 22.8913 7.376C23.1686 7.376 23.4139 7.376 23.6273 7.376C25.1206 7.376 26.1019 7.13067 26.5713 6.64C26.9553 6.192 27.1473 5.69067 27.1473 5.136C27.1473 4.83733 27.0619 4.57067 26.8913 4.336C26.7206 4.08 26.6353 3.952 26.6353 3.952C26.6353 3.84533 26.6993 3.792 26.8273 3.792C27.2113 3.792 27.4033 4.24 27.4033 5.136C27.4033 7.29067 25.6006 8.368 21.9953 8.368H21.7393L19.0833 16.656C17.9313 20.0693 16.6193 22.6293 15.1473 24.336C13.2059 26.576 10.7739 27.696 7.85125 27.696ZM9.16325 27.28C11.5099 26.9387 13.4299 25.6053 14.9233 23.28C15.4139 22.4907 15.8939 21.4773 16.3633 20.24C16.8539 18.9813 17.3339 17.5093 17.8033 15.824C18.3366 13.8613 18.7953 12.2507 19.1793 10.992C19.5633 9.712 19.8833 8.80533 20.1393 8.272C19.7553 8.22933 19.3606 8.18667 18.9553 8.144C18.5499 8.10133 18.1339 8.03733 17.7073 7.952V8.624C17.7073 10.224 17.5153 11.888 17.1313 13.616C16.7686 15.3227 16.2246 17.0933 15.4993 18.928C13.7713 23.1733 11.6593 25.9573 9.16325 27.28ZM22.1038 26.672C21.8478 26.672 21.5811 26.5653 21.3038 26.352C21.0478 26.16 20.9198 25.936 20.9198 25.68C20.9198 24.9973 21.1864 23.7813 21.7198 22.032C22.5304 19.3653 23.5544 16.88 24.7918 14.576C26.6264 11.0773 28.3651 9.328 30.0078 9.328C31.0104 9.328 31.5118 10.16 31.5118 11.824C31.5118 13.04 30.6158 14.5653 28.8238 16.4L24.6958 20.24C24.5464 20.3893 24.3758 20.5707 24.1838 20.784C24.0131 20.976 23.8104 21.2107 23.5758 21.488C23.4264 21.7227 23.2024 22.224 22.9038 22.992C22.6478 23.76 22.5198 24.2933 22.5198 24.592C22.5198 24.8267 22.5731 25.0293 22.6798 25.2C22.7224 25.1573 22.8398 25.0613 23.0318 24.912C23.2451 24.7413 23.5224 24.5067 23.8638 24.208C25.9118 22.48 27.4158 21.616 28.3758 21.616C28.5678 21.616 28.7278 21.776 28.8558 22.096C29.0051 22.416 29.1544 22.8853 29.3038 23.504C29.6664 24.848 30.2318 25.52 30.9998 25.52C31.6824 25.52 32.5891 24.9867 33.7198 23.92C33.9118 23.7067 34.1038 23.4933 34.2958 23.28C34.5091 23.0453 34.7011 22.8213 34.8718 22.608C34.9784 22.4373 35.0851 22.352 35.1918 22.352C35.3198 22.352 35.3518 22.4373 35.2878 22.608C35.2664 22.6933 35.2238 22.8 35.1598 22.928C35.0958 23.0347 35.0424 23.1093 34.9998 23.152C34.5731 23.728 34.1464 24.2507 33.7198 24.72C33.1864 25.232 32.6531 25.6373 32.1198 25.936C31.5864 26.2347 31.0744 26.384 30.5838 26.384C30.1358 26.384 29.7091 26.256 29.3038 26C28.9198 25.7227 28.5784 25.296 28.2798 24.72C27.6824 23.568 27.2344 22.992 26.9358 22.992C26.5304 22.992 26.0184 23.216 25.3998 23.664C24.7811 24.0907 24.0771 24.7627 23.2878 25.68L22.5198 26.576C22.3704 26.64 22.2318 26.672 22.1038 26.672ZM23.8638 20.176C24.5678 19.6853 25.2824 19.1093 26.0078 18.448C26.7544 17.7653 27.5011 17.0187 28.2478 16.208C30.1038 14.1173 31.0318 12.496 31.0318 11.344C31.0318 10.6613 30.7651 10.32 30.2318 10.32C28.7811 10.32 26.8824 13.0293 24.5358 18.448C24.0878 19.4293 23.8638 20.0053 23.8638 20.176ZM35.7348 26.576C34.9454 26.576 34.5508 26 34.5508 24.848C34.5508 24.5493 34.5828 24.2187 34.6468 23.856C34.7108 23.4933 34.7961 23.1093 34.9028 22.704C35.1161 21.9573 35.4361 21.1147 35.8628 20.176C36.5028 18.8533 37.0361 18.192 37.4628 18.192C37.8681 18.192 38.1988 18.416 38.4548 18.864C38.6254 18.8 38.7641 18.768 38.8708 18.768C39.4681 18.768 39.7668 19.216 39.7668 20.112C39.7668 20.496 39.6921 20.944 39.5428 21.456C39.3934 21.968 39.1374 22.608 38.7748 23.376C39.3081 23.8667 39.8308 24.112 40.3428 24.112C40.7481 24.112 41.1321 24.016 41.4948 23.824C41.8574 23.6107 42.2628 23.2053 42.7108 22.608C42.7534 22.5653 42.8174 22.544 42.9028 22.544C42.9668 22.544 42.9988 22.608 42.9988 22.736C42.9988 22.864 42.9454 23.0027 42.8388 23.152C42.5614 23.5147 42.2094 23.8453 41.7828 24.144C41.3774 24.4213 40.8654 24.56 40.2468 24.56C39.6281 24.56 39.0734 24.3467 38.5828 23.92C37.7721 25.6907 36.8228 26.576 35.7348 26.576ZM38.3908 22.96C38.5614 22.576 38.6894 22.1813 38.7748 21.776C38.8601 21.3707 38.9028 20.9333 38.9028 20.464C38.9028 19.7387 38.6894 19.376 38.2628 19.376C37.8574 19.376 37.6548 19.7707 37.6548 20.56C37.6548 20.9013 37.7294 21.3173 37.8788 21.808C38.0494 22.2987 38.2201 22.6827 38.3908 22.96ZM36.3108 25.68C36.6094 25.68 36.9828 25.392 37.4308 24.816C37.6228 24.5813 37.7828 24.3467 37.9108 24.112C38.0388 23.856 38.1241 23.6853 38.1668 23.6C37.8468 23.2373 37.5694 22.8533 37.3348 22.448C37.1001 22.0427 36.9614 21.6267 36.9188 21.2C36.6628 21.4133 36.3961 21.968 36.1188 22.864C35.8414 23.76 35.7028 24.4107 35.7028 24.816C35.7028 25.392 35.9054 25.68 36.3108 25.68ZM44.3145 26.288C43.2052 26.288 42.6505 25.4773 42.6505 23.856C42.6505 22.1707 43.2585 19.8453 44.4745 16.88C44.9438 15.7493 45.4452 14.6293 45.9785 13.52C46.5118 12.4107 47.0772 11.3333 47.6745 10.288C47.8878 9.92533 48.1545 9.49867 48.4745 9.008C48.7945 8.51733 49.1892 7.97333 49.6585 7.376C49.8078 7.22667 50.0425 7.152 50.3625 7.152C50.9172 7.152 51.1945 7.26933 51.1945 7.504C51.1945 7.54667 51.1732 7.61067 51.1305 7.696C50.7892 8.10133 50.4052 8.61333 49.9785 9.232C49.5732 9.85067 49.1145 10.5867 48.6025 11.44C47.9412 12.592 47.3438 13.6587 46.8105 14.64C46.2772 15.6 45.8292 16.496 45.4665 17.328C44.8052 18.8 44.3038 20.1227 43.9625 21.296C43.6425 22.448 43.4825 23.4293 43.4825 24.24C43.4825 25.2213 43.8452 25.712 44.5705 25.712C44.9332 25.712 45.2958 25.52 45.6585 25.136C46.0425 24.7307 46.4265 24.208 46.8105 23.568C46.5332 23.2053 46.3412 22.8 46.2345 22.352C46.1278 21.8827 46.0745 21.328 46.0745 20.688C46.0745 19.4507 46.4052 18.832 47.0665 18.832C47.6852 18.832 47.9945 19.4293 47.9945 20.624C47.9945 21.7973 47.8345 22.7573 47.5145 23.504C47.8345 23.76 48.1972 23.888 48.6025 23.888C48.9652 23.888 49.3385 23.7707 49.7225 23.536C50.1278 23.3013 50.4692 22.992 50.7465 22.608C50.7892 22.5653 50.8532 22.544 50.9385 22.544C51.0025 22.544 51.0345 22.608 51.0345 22.736C51.0345 22.7573 51.0132 22.8213 50.9705 22.928C50.9492 23.0347 50.9172 23.1093 50.8745 23.152C50.5972 23.536 50.2452 23.8347 49.8185 24.048C49.3918 24.24 48.9652 24.336 48.5385 24.336C48.0265 24.336 47.6212 24.208 47.3225 23.952C46.3198 25.5093 45.3172 26.288 44.3145 26.288ZM53.6898 16.272C53.4338 16.272 53.1991 16.1547 52.9858 15.92C52.7724 15.6853 52.6658 15.44 52.6658 15.184C52.6658 14.5867 52.9964 14.288 53.6578 14.288C54.2978 14.288 54.6178 14.5973 54.6178 15.216C54.6178 15.92 54.3084 16.272 53.6898 16.272ZM53.2738 26.256C52.5484 26.256 51.9404 26.0107 51.4498 25.52C50.9804 25.008 50.7458 24.272 50.7458 23.312C50.7458 22.1387 51.0658 20.944 51.7057 19.728C51.9404 19.28 52.3458 19.056 52.9218 19.056C53.2631 19.056 53.4338 19.1627 53.4338 19.376C53.4338 19.44 53.4018 19.536 53.3378 19.664C52.5911 21.0933 52.2178 22.32 52.2178 23.344C52.2178 24.0907 52.3458 24.6347 52.6018 24.976C52.8791 25.3173 53.2524 25.488 53.7218 25.488C54.4684 25.488 55.2151 25.2107 55.9618 24.656C56.7084 24.08 57.4338 23.3867 58.1378 22.576C58.2018 22.4693 58.2978 22.416 58.4258 22.416C58.5111 22.416 58.5538 22.4587 58.5538 22.544C58.5538 22.608 58.5111 22.704 58.4258 22.832C58.3618 22.9387 58.2978 23.0453 58.2338 23.152C57.9564 23.5147 57.6258 23.888 57.2418 24.272C56.8578 24.656 56.4098 25.0187 55.8978 25.36C55.4924 25.6373 55.0551 25.8507 54.5858 26C54.1378 26.1707 53.7004 26.256 53.2738 26.256ZM58.9848 26.576C58.1954 26.576 57.8008 26 57.8008 24.848C57.8008 24.5493 57.8328 24.2187 57.8968 23.856C57.9608 23.4933 58.0461 23.1093 58.1528 22.704C58.3661 21.9573 58.6861 21.1147 59.1128 20.176C59.7528 18.8533 60.2861 18.192 60.7128 18.192C61.1181 18.192 61.4488 18.416 61.7048 18.864C61.8754 18.8 62.0141 18.768 62.1208 18.768C62.7181 18.768 63.0168 19.216 63.0168 20.112C63.0168 20.496 62.9421 20.944 62.7928 21.456C62.6434 21.968 62.3874 22.608 62.0248 23.376C62.5581 23.8667 63.0808 24.112 63.5928 24.112C63.9981 24.112 64.3821 24.016 64.7448 23.824C65.1074 23.6107 65.5128 23.2053 65.9608 22.608C66.0034 22.5653 66.0674 22.544 66.1528 22.544C66.2168 22.544 66.2488 22.608 66.2488 22.736C66.2488 22.864 66.1954 23.0027 66.0888 23.152C65.8114 23.5147 65.4594 23.8453 65.0328 24.144C64.6274 24.4213 64.1154 24.56 63.4968 24.56C62.8781 24.56 62.3234 24.3467 61.8328 23.92C61.0221 25.6907 60.0728 26.576 58.9848 26.576ZM61.6408 22.96C61.8114 22.576 61.9394 22.1813 62.0248 21.776C62.1101 21.3707 62.1528 20.9333 62.1528 20.464C62.1528 19.7387 61.9394 19.376 61.5128 19.376C61.1074 19.376 60.9048 19.7707 60.9048 20.56C60.9048 20.9013 60.9794 21.3173 61.1288 21.808C61.2994 22.2987 61.4701 22.6827 61.6408 22.96ZM59.5608 25.68C59.8594 25.68 60.2328 25.392 60.6808 24.816C60.8728 24.5813 61.0328 24.3467 61.1608 24.112C61.2888 23.856 61.3741 23.6853 61.4168 23.6C61.0968 23.2373 60.8194 22.8533 60.5848 22.448C60.3501 22.0427 60.2114 21.6267 60.1688 21.2C59.9128 21.4133 59.6461 21.968 59.3688 22.864C59.0914 23.76 58.9528 24.4107 58.9528 24.816C58.9528 25.392 59.1554 25.68 59.5608 25.68ZM76.1173 33.456C75.3919 33.456 74.6559 33.3707 73.9093 33.2C73.1839 33.0507 72.4586 32.8373 71.7333 32.56C70.2186 31.8987 69.0132 31.056 68.1172 30.032C66.9012 28.56 66.2932 27.536 66.2932 26.96C66.2932 26.5333 66.6452 26.32 67.3492 26.32C67.5412 26.32 67.6799 26.384 67.7652 26.512C67.8506 26.64 67.9679 26.8107 68.1172 27.024C68.2452 27.2373 68.4159 27.4933 68.6292 27.792C70.5493 30.1813 72.4586 31.376 74.3573 31.376C78.6666 31.376 82.1546 28.2293 84.8213 21.936C84.6719 21.9573 84.5119 21.968 84.3413 21.968C84.1919 21.968 84.0319 21.968 83.8613 21.968C82.1119 21.968 80.6826 21.5093 79.5733 20.592C78.4639 19.632 77.9093 18.256 77.9093 16.464C77.9093 14.096 78.8479 11.8773 80.7253 9.808C82.4533 7.888 84.5119 6.544 86.9013 5.776C86.5599 4.51733 86.1119 3.48267 85.5573 2.672L85.8453 3.6C85.8453 3.856 85.6959 4.21867 85.3973 4.688C85.0986 5.17867 84.9066 5.424 84.8213 5.424C84.5866 5.424 84.4693 5.01867 84.4693 4.208V3.984C85.0239 3.19467 85.3013 2.58667 85.3013 2.16C85.3013 1.968 85.2693 1.776 85.2053 1.584C86.1226 2.43733 86.8053 3.792 87.2533 5.648C88.5333 5.24267 89.9946 5.04 91.6373 5.04C91.8079 5.04 91.9999 5.04 92.2133 5.04C92.4266 5.04 92.6613 5.05067 92.9173 5.072L93.2373 4.56C94.3679 2.74667 95.5626 1.84 96.8213 1.84C97.0986 1.84 97.3866 1.92533 97.6853 2.096C98.0053 2.26667 98.1653 2.48 98.1653 2.736C98.1653 3.12 98.0373 3.312 97.7813 3.312C97.7173 3.312 97.5573 3.152 97.3013 2.832C97.0239 2.49067 96.6826 2.32 96.2773 2.32C95.2959 2.32 94.4746 3.248 93.8133 5.104C94.3039 5.12533 94.7306 5.14667 95.0933 5.168C95.4559 5.168 95.7653 5.168 96.0213 5.168C98.9653 5.168 100.437 4.38933 100.437 2.832C100.437 2.46933 100.341 2.096 100.149 1.712C99.9573 1.328 99.8613 1.104 99.8613 1.04C99.8613 0.975999 99.8933 0.943998 99.9573 0.943998C100.149 0.943998 100.32 1.21067 100.469 1.744C100.619 2.17067 100.693 2.52267 100.693 2.8C100.693 3.09867 100.651 3.36533 100.565 3.6C100.011 5.22133 98.5813 6.032 96.2773 6.032C96.1493 6.032 95.8719 6.02133 95.4453 6C95.0186 5.95733 94.4319 5.936 93.6853 5.936H93.5573L92.4053 10.128C91.8079 12.304 91.2746 14.2133 90.8053 15.856C90.3359 17.4987 89.9093 18.8853 89.5253 20.016C90.8479 19.12 91.7759 18 92.3093 16.656C92.4586 16.336 92.5333 16.048 92.5333 15.792C92.5333 15.6427 92.4906 15.536 92.4053 15.472C92.3413 15.408 92.3093 15.3653 92.3093 15.344C92.3093 15.1733 92.4266 15.088 92.6613 15.088C93.0026 15.088 93.1733 15.3333 93.1733 15.824C93.1733 16.0373 93.1093 16.2933 92.9813 16.592C92.3413 18.128 91.1359 19.4187 89.3653 20.464L89.2373 20.848C88.8106 22.1493 88.3519 23.312 87.8612 24.336C87.3706 25.3387 86.9013 26.2133 86.4533 26.96C83.7226 31.2907 80.2773 33.456 76.1173 33.456ZM85.6853 21.328C86.3466 21.264 86.9546 21.136 87.5093 20.944C87.8719 19.7493 88.3306 18.2453 88.8853 16.432C89.4613 14.6187 90.1333 12.5173 90.9013 10.128C91.1999 9.18933 91.4879 8.35733 91.7653 7.632C92.0639 6.90667 92.3199 6.30933 92.5333 5.84C91.1253 5.712 90.2186 5.648 89.8133 5.648C88.8746 5.648 88.0426 5.75467 87.3173 5.968C87.4879 6.69333 87.6159 7.44 87.7013 8.208C87.7866 8.976 87.8293 9.76533 87.8293 10.576C87.8293 13.9253 87.1146 17.5093 85.6853 21.328ZM85.0133 21.328H85.0773C85.4186 20.496 85.7279 19.6533 86.0053 18.8C86.2826 17.9253 86.5279 17.0507 86.7413 16.176C86.4639 15.28 85.9199 14.832 85.1093 14.832C84.9813 14.832 84.8319 14.864 84.6613 14.928V14.768C84.6613 14.448 84.7893 14.1493 85.0453 13.872C85.3013 13.5947 85.5893 13.456 85.9093 13.456C86.6133 13.456 86.9546 14.0427 86.9333 15.216C87.2533 13.6373 87.4132 12.048 87.4132 10.448C87.4132 9.63733 87.3706 8.86933 87.2853 8.144C87.2213 7.41867 87.1146 6.72533 86.9653 6.064C84.9599 6.68267 83.2106 8.016 81.7173 10.064C80.9919 11.088 80.4373 12.1227 80.0533 13.168C79.6693 14.192 79.4773 15.2373 79.4773 16.304C79.4773 17.8613 80.0213 19.1093 81.1093 20.048C82.1333 20.9013 83.4346 21.328 85.0133 21.328ZM75.9573 32.976C79.3066 32.976 82.3573 30.7787 85.1093 26.384C85.4933 25.7653 85.8773 25.04 86.2613 24.208C86.6453 23.376 87.0079 22.4373 87.3493 21.392C87.0506 21.4773 86.7413 21.5627 86.4213 21.648C86.1013 21.7333 85.7812 21.7973 85.4613 21.84C83.4773 26.8107 80.7999 29.968 77.4293 31.312C76.6613 31.632 75.7759 31.792 74.7733 31.792C72.3413 31.792 70.4213 31.0667 69.0132 29.616C71.2106 31.856 73.5253 32.976 75.9573 32.976ZM93.6723 26.576C92.8829 26.576 92.4883 26 92.4883 24.848C92.4883 24.5493 92.5203 24.2187 92.5843 23.856C92.6483 23.4933 92.7336 23.1093 92.8403 22.704C93.0536 21.9573 93.3736 21.1147 93.8003 20.176C94.4403 18.8533 94.9736 18.192 95.4003 18.192C95.8056 18.192 96.1363 18.416 96.3923 18.864C96.5629 18.8 96.7016 18.768 96.8083 18.768C97.4056 18.768 97.7043 19.216 97.7043 20.112C97.7043 20.496 97.6296 20.944 97.4803 21.456C97.3309 21.968 97.0749 22.608 96.7123 23.376C97.2456 23.8667 97.7683 24.112 98.2803 24.112C98.6856 24.112 99.0696 24.016 99.4323 23.824C99.7949 23.6107 100.2 23.2053 100.648 22.608C100.691 22.5653 100.755 22.544 100.84 22.544C100.904 22.544 100.936 22.608 100.936 22.736C100.936 22.864 100.883 23.0027 100.776 23.152C100.499 23.5147 100.147 23.8453 99.7203 24.144C99.3149 24.4213 98.8029 24.56 98.1843 24.56C97.5656 24.56 97.0109 24.3467 96.5203 23.92C95.7096 25.6907 94.7603 26.576 93.6723 26.576ZM96.3283 22.96C96.4989 22.576 96.6269 22.1813 96.7123 21.776C96.7976 21.3707 96.8403 20.9333 96.8403 20.464C96.8403 19.7387 96.6269 19.376 96.2003 19.376C95.7949 19.376 95.5923 19.7707 95.5923 20.56C95.5923 20.9013 95.6669 21.3173 95.8163 21.808C95.9869 22.2987 96.1576 22.6827 96.3283 22.96ZM94.2483 25.68C94.5469 25.68 94.9203 25.392 95.3683 24.816C95.5603 24.5813 95.7203 24.3467 95.8483 24.112C95.9763 23.856 96.0616 23.6853 96.1043 23.6C95.7843 23.2373 95.5069 22.8533 95.2723 22.448C95.0376 22.0427 94.8989 21.6267 94.8563 21.2C94.6003 21.4133 94.3336 21.968 94.0563 22.864C93.7789 23.76 93.6403 24.4107 93.6403 24.816C93.6403 25.392 93.8429 25.68 94.2483 25.68ZM103.692 26.096C103.479 26.096 103.255 26.064 103.02 26C102.38 25.8507 101.665 25.424 100.876 24.72C100.023 23.9307 99.596 23.2587 99.596 22.704C99.596 22.2347 99.7773 22 100.14 22C100.417 22 100.684 22.1707 100.94 22.512C101.687 21.9147 102.391 21.232 103.052 20.464C103.713 19.696 104.321 18.832 104.876 17.872L105.58 16.656C105.601 16.5707 105.665 16.528 105.772 16.528C105.985 16.528 106.199 16.6667 106.412 16.944C106.647 17.2 106.764 17.4347 106.764 17.648C106.764 17.7973 106.636 18.064 106.38 18.448C106.103 18.7893 105.964 19.152 105.964 19.536C105.964 19.6853 105.975 19.92 105.996 20.24C106.017 20.5387 106.028 20.7733 106.028 20.944C106.028 22.9067 105.708 24.3573 105.068 25.296C105.196 25.3173 105.335 25.3387 105.484 25.36C105.655 25.36 105.815 25.36 105.964 25.36C106.817 25.36 107.511 25.2853 108.044 25.136C108.599 24.9653 109.1 24.6773 109.548 24.272C109.996 23.8667 110.487 23.312 111.02 22.608C111.084 22.5227 111.159 22.48 111.244 22.48C111.329 22.48 111.372 22.544 111.372 22.672C111.372 22.736 111.34 22.8213 111.276 22.928C111.233 23.0347 111.191 23.1093 111.148 23.152C110.38 24.1973 109.591 24.9333 108.78 25.36C107.991 25.7867 106.945 26 105.644 26C105.239 26 104.844 25.968 104.46 25.904C104.247 26.032 103.991 26.096 103.692 26.096ZM103.724 24.912C104.407 24.784 104.748 23.888 104.748 22.224C104.748 21.7973 104.727 21.3707 104.684 20.944C104.663 20.496 104.609 20.0373 104.524 19.568C103.756 20.6987 102.679 21.84 101.292 22.992C101.932 23.8667 102.743 24.5067 103.724 24.912ZM114.227 26.256C113.352 26.256 112.595 26.0107 111.955 25.52C111.336 25.008 111.027 24.24 111.027 23.216C111.027 22.0853 111.4 20.9227 112.147 19.728C112.531 19.1093 113 18.6187 113.555 18.256C114.11 17.872 114.6 17.68 115.027 17.68C115.646 17.68 115.955 18.0533 115.955 18.8C115.955 19.44 115.528 20.2187 114.675 21.136C113.886 21.9467 113.139 22.5013 112.435 22.8C112.414 22.8853 112.392 22.9813 112.371 23.088C112.371 23.1733 112.371 23.2693 112.371 23.376C112.371 24.72 113.171 25.392 114.771 25.392C115.688 25.392 116.542 25.1147 117.331 24.56C118.142 23.984 118.846 23.3333 119.443 22.608C119.55 22.48 119.646 22.416 119.731 22.416C119.816 22.416 119.859 22.4587 119.859 22.544C119.859 22.6293 119.816 22.7467 119.731 22.896C119.646 23.024 119.582 23.1093 119.539 23.152C119.198 23.6213 118.835 24.0373 118.451 24.4C118.088 24.7627 117.598 25.1147 116.979 25.456C116.531 25.7333 116.062 25.936 115.571 26.064C115.102 26.192 114.654 26.256 114.227 26.256ZM112.563 22.128C112.84 21.9787 113.107 21.808 113.363 21.616C113.64 21.4027 113.907 21.1573 114.163 20.88C114.739 20.1973 115.027 19.6 115.027 19.088C115.027 18.768 114.931 18.608 114.739 18.608C114.568 18.608 114.344 18.7573 114.067 19.056C113.811 19.3333 113.566 19.6853 113.331 20.112C112.926 20.944 112.67 21.616 112.563 22.128ZM115.37 41.232C114.794 41.232 114.389 40.8053 114.154 39.952C114.133 39.9093 114.122 39.7387 114.122 39.44C114.122 37.8613 115.263 35.216 117.546 31.504C118.527 29.8613 119.445 28.4213 120.298 27.184C121.173 25.968 121.973 24.944 122.698 24.112C122.698 22.0853 122.442 21.072 121.93 21.072C121.738 21.072 121.429 21.2533 121.002 21.616C120.575 21.9573 120.085 22.4693 119.53 23.152C119.359 23.3653 119.21 23.472 119.082 23.472C118.975 23.472 118.922 23.4187 118.922 23.312C118.922 23.2907 118.954 23.2267 119.018 23.12C119.082 22.992 119.21 22.8213 119.402 22.608C119.743 22.1813 120.106 21.7333 120.49 21.264C120.895 20.7733 121.29 20.368 121.674 20.048C122.058 19.7067 122.41 19.536 122.73 19.536C123.37 19.536 123.754 19.8133 123.882 20.368L124.01 21.904C125.738 19.5787 127.157 18.416 128.266 18.416C129.418 18.416 129.994 18.928 129.994 19.952C129.994 21.0187 129.461 22.2773 128.394 23.728C127.285 25.2427 126.207 26 125.162 26C124.543 26 124.053 25.7867 123.69 25.36C123.754 26.896 123.551 28.5067 123.082 30.192C122.634 31.8987 121.941 33.6907 121.002 35.568C119.039 39.344 117.162 41.232 115.37 41.232ZM125.258 25.328C126.111 25.328 126.869 24.784 127.53 23.696C128.127 22.6933 128.426 21.7547 128.426 20.88C128.426 19.9627 128.117 19.504 127.498 19.504C126.751 19.504 125.589 20.624 124.01 22.864C124.01 23.184 123.978 23.664 123.914 24.304C124.213 24.9867 124.661 25.328 125.258 25.328ZM116.074 40.4C117.397 40.336 118.815 38.3627 120.33 34.48C121.866 30.768 122.581 27.664 122.474 25.168C121.365 26.32 119.935 28.6027 118.186 32.016C117.269 33.808 116.597 35.3227 116.17 36.56C115.722 37.7973 115.498 38.7573 115.498 39.44C115.498 40.08 115.69 40.4 116.074 40.4ZM131.854 26.672C131.598 26.672 131.331 26.5653 131.054 26.352C130.798 26.16 130.67 25.936 130.67 25.68C130.67 24.9973 130.936 23.7813 131.47 22.032C132.28 19.3653 133.304 16.88 134.542 14.576C136.376 11.0773 138.115 9.328 139.758 9.328C140.76 9.328 141.262 10.16 141.262 11.824C141.262 13.04 140.366 14.5653 138.574 16.4L134.446 20.24C134.296 20.3893 134.126 20.5707 133.934 20.784C133.763 20.976 133.56 21.2107 133.326 21.488C133.176 21.7227 132.952 22.224 132.654 22.992C132.398 23.76 132.27 24.2933 132.27 24.592C132.27 24.8267 132.323 25.0293 132.43 25.2C132.472 25.1573 132.59 25.0613 132.782 24.912C132.995 24.7413 133.272 24.5067 133.614 24.208C135.662 22.48 137.166 21.616 138.126 21.616C138.318 21.616 138.478 21.776 138.606 22.096C138.755 22.416 138.904 22.8853 139.054 23.504C139.416 24.848 139.982 25.52 140.75 25.52C141.432 25.52 142.339 24.9867 143.47 23.92C143.662 23.7067 143.854 23.4933 144.046 23.28C144.259 23.0453 144.451 22.8213 144.622 22.608C144.728 22.4373 144.835 22.352 144.942 22.352C145.07 22.352 145.102 22.4373 145.038 22.608C145.016 22.6933 144.974 22.8 144.91 22.928C144.846 23.0347 144.792 23.1093 144.75 23.152C144.323 23.728 143.896 24.2507 143.47 24.72C142.936 25.232 142.403 25.6373 141.87 25.936C141.336 26.2347 140.824 26.384 140.334 26.384C139.886 26.384 139.459 26.256 139.054 26C138.67 25.7227 138.328 25.296 138.03 24.72C137.432 23.568 136.984 22.992 136.686 22.992C136.28 22.992 135.768 23.216 135.15 23.664C134.531 24.0907 133.827 24.7627 133.038 25.68L132.27 26.576C132.12 26.64 131.982 26.672 131.854 26.672ZM133.614 20.176C134.318 19.6853 135.032 19.1093 135.758 18.448C136.504 17.7653 137.251 17.0187 137.998 16.208C139.854 14.1173 140.782 12.496 140.782 11.344C140.782 10.6613 140.515 10.32 139.982 10.32C138.531 10.32 136.632 13.0293 134.286 18.448C133.838 19.4293 133.614 20.0053 133.614 20.176Z" fill="black"/>
</svg>
