<svg width="31" height="31" viewBox="0 0 31 31" fill="none" xmlns="http://www.w3.org/2000/svg">
<path fill-rule="evenodd" clip-rule="evenodd" d="M12.297 10.0319C12.0627 9.49766 11.8024 9.48469 11.5811 9.48469C11.3857 9.47171 11.1766 9.47171 10.9553 9.47171C10.7477 9.47171 10.3959 9.54955 10.0967 9.87543C9.79682 10.2005 8.97717 10.9691 8.97717 12.5442C8.97717 14.1202 10.1227 15.6435 10.2791 15.8518C10.4348 16.0602 12.4923 19.3929 15.748 20.6827C18.4558 21.7504 19.0029 21.542 19.5891 21.4764C20.1744 21.4115 21.4771 20.7086 21.7504 19.9531C22.0106 19.2113 22.0106 18.5603 21.9328 18.4298C21.8549 18.3001 21.6328 18.2215 21.3207 18.052C20.9948 17.8964 19.4326 17.1149 19.1334 17.0103C18.8335 16.9065 18.6252 16.8546 18.4168 17.1668C18.2085 17.4926 17.5964 18.2085 17.4018 18.4168C17.2187 18.6252 17.024 18.6511 16.7111 18.4947C16.386 18.339 15.3573 18.0001 14.1332 16.9065C13.1822 16.0594 12.5442 15.0055 12.3489 14.6933C12.1672 14.3675 12.3229 14.198 12.4923 14.0416C12.6358 13.8989 12.8182 13.6646 12.9747 13.4822C13.1303 13.299 13.1822 13.1563 13.2998 12.948C13.4036 12.7396 13.3517 12.5442 13.2738 12.3886C13.1952 12.2451 12.5839 10.6699 12.297 10.0319Z" stroke="#7879F1" stroke-linejoin="round"/>
</svg>
