<svg width="34" height="33" viewBox="0 0 34 33" fill="none" xmlns="http://www.w3.org/2000/svg">
<path fill-rule="evenodd" clip-rule="evenodd" d="M16.8921 1C8.11169 1 1 8.11169 1 16.8921C1 23.9243 5.5491 29.8639 11.8662 31.9696C12.6608 32.1087 12.9588 31.6319 12.9588 31.2148C12.9588 30.8373 12.9389 29.5858 12.9389 28.2549C8.94603 28.9899 7.91304 27.2815 7.5952 26.3876C7.41642 25.9307 6.64168 24.5202 5.96627 24.1428C5.41004 23.8448 4.61544 23.1098 5.9464 23.09C7.1979 23.0701 8.09183 24.2421 8.3898 24.7189C9.82009 27.1226 12.1046 26.4472 13.0184 26.03C13.1574 24.997 13.5746 24.3017 14.0315 23.9044C10.4955 23.5071 6.8006 22.1364 6.8006 16.0577C6.8006 14.3295 7.41642 12.8992 8.42953 11.7867C8.27061 11.3894 7.71439 9.7605 8.58845 7.57534C8.58845 7.57534 9.91941 7.15817 12.9588 9.20427C14.2301 8.8467 15.581 8.66792 16.9318 8.66792C18.2826 8.66792 19.6334 8.8467 20.9048 9.20427C23.9442 7.13831 25.2751 7.57534 25.2751 7.57534C26.1492 9.7605 25.593 11.3894 25.434 11.7867C26.4471 12.8992 27.063 14.3096 27.063 16.0577C27.063 22.1563 23.3482 23.5071 19.8122 23.9044C20.3883 24.401 20.8849 25.3546 20.8849 26.8445C20.8849 28.97 20.8651 30.6784 20.8651 31.2148C20.8651 31.6319 21.163 32.1286 21.9576 31.9696C25.1125 30.9046 27.8539 28.877 29.7961 26.1723C31.7382 23.4675 32.7833 20.2218 32.7841 16.8921C32.7841 8.11169 25.6724 1 16.8921 1Z" stroke="#7879F1" stroke-linejoin="round"/>
</svg>
